<svg width="24" height="25" viewBox="0 0 24 25" fill="none" xmlns="http://www.w3.org/2000/svg">
<path d="M8.073 12.2252L4.212 8.36422C2.692 10.0212 2.116 11.6812 2.106 11.7152L2 12.0312L2.105 12.3472C2.127 12.4142 4.421 19.0312 12.054 19.0312C12.983 19.0312 13.829 18.9292 14.606 18.7582L11.86 16.0122C10.8713 15.9637 9.93595 15.5492 9.23598 14.8492C8.53601 14.1493 8.12147 13.2139 8.073 12.2252ZM12.054 5.03122C10.199 5.03122 8.679 5.43522 7.412 6.02922L3.707 2.32422L2.293 3.73822L20.293 21.7382L21.707 20.3242L18.409 17.0262C21.047 15.0732 21.988 12.3892 22.002 12.3472L22.107 12.0312L22.002 11.7152C21.98 11.6482 19.687 5.03122 12.054 5.03122ZM13.96 12.5772C14.147 11.9002 13.988 11.1382 13.468 10.6172C12.948 10.0962 12.185 9.93822 11.508 10.1252L10 8.61722C10.6181 8.23744 11.3286 8.03473 12.054 8.03122C14.26 8.03122 16.054 9.82522 16.054 12.0312C16.051 12.7565 15.8479 13.467 15.467 14.0842L13.96 12.5772Z" fill="#4A8EFF"/>
</svg>
